<svg width="16" height="18" viewBox="0 0 16 18" fill="none" xmlns="http://www.w3.org/2000/svg">
<path d="M10.6667 17.6666H5.33333C4.44928 17.6666 3.60143 17.3155 2.97631 16.6903C2.35119 16.0652 2 15.2174 2 14.3333V6.33332C2 6.1565 2.07024 5.98694 2.19526 5.86191C2.32029 5.73689 2.48986 5.66665 2.66667 5.66665C2.84348 5.66665 3.01305 5.73689 3.13807 5.86191C3.2631 5.98694 3.33333 6.1565 3.33333 6.33332V14.3333C3.33333 14.8637 3.54405 15.3725 3.91912 15.7475C4.29419 16.1226 4.8029 16.3333 5.33333 16.3333H10.6667C11.1971 16.3333 11.7058 16.1226 12.0809 15.7475C12.456 15.3725 12.6667 14.8637 12.6667 14.3333V6.33332C12.6667 6.1565 12.7369 5.98694 12.8619 5.86191C12.987 5.73689 13.1565 5.66665 13.3333 5.66665C13.5101 5.66665 13.6797 5.73689 13.8047 5.86191C13.9298 5.98694 14 6.1565 14 6.33332V14.3333C14 15.2174 13.6488 16.0652 13.0237 16.6903C12.3986 17.3155 11.5507 17.6666 10.6667 17.6666Z" fill="#FF6363"/>
<path d="M14.6667 4.33332H1.33332C1.15651 4.33332 0.986943 4.26308 0.861919 4.13806C0.736895 4.01303 0.666656 3.84346 0.666656 3.66665C0.666656 3.48984 0.736895 3.32027 0.861919 3.19525C0.986943 3.07022 1.15651 2.99998 1.33332 2.99998H14.6667C14.8435 2.99998 15.013 3.07022 15.1381 3.19525C15.2631 3.32027 15.3333 3.48984 15.3333 3.66665C15.3333 3.84346 15.2631 4.01303 15.1381 4.13806C15.013 4.26308 14.8435 4.33332 14.6667 4.33332Z" fill="#FF6363"/>
<path d="M10.6667 4.33333H5.33332C5.15651 4.33333 4.98694 4.26309 4.86192 4.13807C4.73689 4.01304 4.66666 3.84347 4.66666 3.66666V2.33333C4.66666 1.8029 4.87737 1.29419 5.25244 0.919115C5.62752 0.544042 6.13622 0.333328 6.66666 0.333328H9.33332C9.86376 0.333328 10.3725 0.544042 10.7475 0.919115C11.1226 1.29419 11.3333 1.8029 11.3333 2.33333V3.66666C11.3333 3.84347 11.2631 4.01304 11.1381 4.13807C11.013 4.26309 10.8435 4.33333 10.6667 4.33333ZM5.99999 3H9.99999V2.33333C9.99999 2.15652 9.92975 1.98695 9.80473 1.86192C9.6797 1.7369 9.51013 1.66666 9.33332 1.66666H6.66666C6.48985 1.66666 6.32028 1.7369 6.19525 1.86192C6.07023 1.98695 5.99999 2.15652 5.99999 2.33333V3Z" fill="#FF6363"/>
<path d="M6.66667 13.6667C6.48986 13.6667 6.32029 13.5964 6.19526 13.4714C6.07024 13.3464 6 13.1768 6 13V8.33334C6 8.15653 6.07024 7.98696 6.19526 7.86193C6.32029 7.73691 6.48986 7.66667 6.66667 7.66667C6.84348 7.66667 7.01305 7.73691 7.13807 7.86193C7.2631 7.98696 7.33333 8.15653 7.33333 8.33334V13C7.33333 13.1768 7.2631 13.3464 7.13807 13.4714C7.01305 13.5964 6.84348 13.6667 6.66667 13.6667Z" fill="#FF6363"/>
<path d="M9.33332 13.6667C9.15651 13.6667 8.98694 13.5964 8.86192 13.4714C8.73689 13.3464 8.66666 13.1768 8.66666 13V8.33334C8.66666 8.15653 8.73689 7.98696 8.86192 7.86193C8.98694 7.73691 9.15651 7.66667 9.33332 7.66667C9.51013 7.66667 9.6797 7.73691 9.80473 7.86193C9.92975 7.98696 9.99999 8.15653 9.99999 8.33334V13C9.99999 13.1768 9.92975 13.3464 9.80473 13.4714C9.6797 13.5964 9.51013 13.6667 9.33332 13.6667Z" fill="#FF6363"/>
</svg>
